<svg width="67" height="47" viewBox="0 0 67 47" fill="none" xmlns="http://www.w3.org/2000/svg">
<path d="M33.5037 46.768C30.8584 46.768 28.3838 46.2133 26.0798 45.104C23.8184 43.9947 21.9838 42.3733 20.5758 40.24C19.2104 38.1067 18.5278 35.568 18.5278 32.624V14.192C18.5278 13.552 18.3784 12.9973 18.0798 12.528C17.8238 12.016 17.4611 11.632 16.9918 11.376C16.5224 11.12 15.9891 10.992 15.3918 10.992C14.7944 10.992 14.2611 11.12 13.7917 11.376C13.3224 11.632 12.9384 12.016 12.6398 12.528C12.3411 12.9973 12.1918 13.552 12.1918 14.192V46H0.35175V14.64C0.35175 11.7387 1.03442 9.22133 2.39975 7.088C3.76508 4.95466 5.57842 3.312 7.83975 2.16C10.1438 0.965329 12.6611 0.367996 15.3918 0.367996C18.1224 0.367996 20.6184 0.965329 22.8798 2.16C25.1411 3.312 26.9544 4.95466 28.3198 7.088C29.6851 9.22133 30.3678 11.7387 30.3678 14.64V33.072C30.3678 33.6693 30.5171 34.224 30.8158 34.736C31.1144 35.2053 31.4984 35.5893 31.9678 35.888C32.4371 36.144 32.9491 36.272 33.5037 36.272C34.0584 36.272 34.5704 36.144 35.0398 35.888C35.5518 35.5893 35.9571 35.2053 36.2558 34.736C36.5544 34.224 36.7038 33.6693 36.7038 33.072V14.64C36.7038 11.7387 37.3864 9.22133 38.7518 7.088C40.1171 4.95466 41.9304 3.312 44.1918 2.16C46.4958 0.965329 49.0131 0.367996 51.7438 0.367996C54.4318 0.367996 56.9064 0.965329 59.1678 2.16C61.4291 3.312 63.2424 4.95466 64.6077 7.088C65.9731 9.22133 66.6558 11.7387 66.6558 14.64V46H54.8798V14.064C54.8798 13.4667 54.7304 12.9333 54.4318 12.464C54.1331 11.9947 53.7491 11.632 53.2798 11.376C52.8104 11.12 52.2984 10.992 51.7438 10.992C51.1464 10.992 50.5918 11.12 50.0798 11.376C49.6104 11.632 49.2264 11.9947 48.9278 12.464C48.6718 12.9333 48.5438 13.4667 48.5438 14.064V32.624C48.5438 35.568 47.8398 38.1067 46.4318 40.24C45.0238 42.3733 43.1891 43.9947 40.9278 45.104C38.6664 46.2133 36.1918 46.768 33.5037 46.768Z" fill="black"/>
</svg>
